<svg viewBox="0 0 512 512" xmlns="http://www.w3.org/2000/svg" xmlns:xlink="http://www.w3.org/1999/xlink" id="Capa_1" overflow="hidden"><linearGradient x1="-36.4519" y1="631.985" x2="-27.6164" y2="623.154" gradientUnits="userSpaceOnUse" id="SVGID_1_" gradientTransform="matrix(21.3333 0 0 -21.3333 996.333 13791.7)"><stop offset="0" stop-opacity="0.1"/><stop offset="1" stop-opacity="0"/></linearGradient><linearGradient x1="-46.0957" y1="639.796" x2="-23.3092" y2="629.172" gradientUnits="userSpaceOnUse" id="SVGID_2_" gradientTransform="matrix(21.3333 0 0 -21.3333 996.333 13791.7)"><stop offset="0" stop-color="#FFFFFF" stop-opacity="0.2"/><stop offset="1" stop-color="#FFFFFF" stop-opacity="0"/></linearGradient><path d="M405.333 0 106.667 0C83.135 0 64 19.135 64 42.667L64 469.334C64 492.865 83.135 512 106.667 512L405.438 512C428.906 512 448 492.906 448 469.438L448 42.667C448 19.135 428.865 0 405.333 0Z" fill="#303C42"/><path d="M426.667 469.438C426.667 481.146 417.146 490.667 405.438 490.667L106.667 490.667C94.907 490.667 85.334 481.094 85.334 469.334L85.334 42.667C85.334 30.907 94.907 21.334 106.667 21.334L405.334 21.334C417.094 21.334 426.667 30.907 426.667 42.667L426.667 469.438Z" fill="#F2F2F2"/><path d="M263.542 195.125C259.375 190.958 252.625 190.958 248.459 195.125L146.594 296.99C134.604 308.979 128 324.917 128 341.865 128 376.865 156.469 405.334 191.469 405.334L202.136 405.334C216.023 405.334 229.098 400.692 240.012 392.494 232.713 412.553 218.629 426.667 202.667 426.667 196.771 426.667 192 431.438 192 437.334 192 443.23 196.771 448 202.667 448L309.334 448C315.23 448 320.001 443.229 320.001 437.333 320.001 431.437 315.23 426.666 309.334 426.666 293.373 426.666 279.288 412.55 271.989 392.493 282.903 400.691 295.979 405.333 309.865 405.333L320.532 405.333C355.532 405.333 384.001 376.864 384.001 341.864 384.001 324.916 377.397 308.979 365.407 296.989L263.542 195.125Z" fill="#303C42"/><g><path d="M244.958 426.667C249.166 421.719 252.885 416.042 256 409.792 259.115 416.042 262.833 421.719 267.042 426.667L244.958 426.667Z" fill="#5C6671"/><path d="M320.531 384 309.864 384C298.614 384 288.031 379.615 280.072 371.656L263.554 355.138C262.567 354.148 261.385 353.363 260.072 352.82 258.769 352.281 257.387 352 255.999 352 254.611 352 253.229 352.281 251.926 352.82 250.613 353.363 249.431 354.148 248.444 355.138L231.926 371.656C223.969 379.615 213.385 384 202.135 384L191.468 384C168.239 384 149.333 365.094 149.333 341.865 149.333 330.615 153.718 320.032 161.677 312.073L256 217.75 350.323 312.073C358.281 320.031 362.667 330.615 362.667 341.865 362.667 365.094 343.76 384 320.531 384Z" fill="#5C6671"/></g><path d="M149.333 341.865C149.333 365.094 168.239 384 191.468 384L202.135 384C203.267 384 204.352 383.763 205.468 383.674 189.28 381.996 176.443 363.99 176.443 341.864 176.443 330.614 179.714 320.031 185.65 312.072L256 217.75 161.677 312.073C153.719 320.031 149.333 330.615 149.333 341.865Z" fill="#FFFFFF" opacity="0.2"/><path d="M350.323 312.073 256 217.75 326.349 312.073C332.285 320.031 335.556 330.615 335.556 341.865 335.556 363.991 322.719 381.997 306.533 383.675 307.649 383.764 308.734 384.001 309.865 384.001L320.532 384.001C343.761 384.001 362.667 365.095 362.667 341.866 362.667 330.615 358.281 320.031 350.323 312.073Z" opacity="0.1"/><path d="M279.888 368.805C278.901 367.815 277.719 367.03 276.406 366.487 275.804 366.238 275.153 366.245 274.524 366.108L280.072 371.656C282.963 374.547 286.288 376.786 289.778 378.695L279.888 368.805Z" fill="#5C6671" opacity="0.2"/><path d="M138.667 170.667C144.563 170.667 149.334 165.896 149.334 160L149.334 149.333 170.667 149.333 170.667 160C170.667 165.896 175.438 170.667 181.334 170.667 187.23 170.667 192.001 165.896 192.001 160L192.001 96C192.001 78.354 177.647 64 160.001 64 142.355 64 128.001 78.354 128.001 96L128.001 160C128 165.896 132.771 170.667 138.667 170.667ZM160 85.333C165.885 85.333 170.667 90.114 170.667 96L170.667 128 149.334 128 149.334 96C149.333 90.115 154.115 85.333 160 85.333Z" fill="#303C42"/><path d="M144.059 384 145.791 385.732C145.245 385.164 144.812 384.498 144.287 383.91L144.059 384ZM202.667 426.667C218.629 426.667 232.713 412.552 240.012 392.494 229.098 400.692 216.022 405.334 202.136 405.334L191.469 405.334C174.431 405.334 159.013 398.506 147.602 387.544L192.999 432.94C194.678 429.254 198.349 426.667 202.667 426.667ZM194.413 443.999 194.772 444.358C194.64 444.211 194.566 444.022 194.443 443.868L194.413 443.999ZM365.406 296.99C377.396 308.98 384 324.917 384 341.865 384 376.865 355.531 405.334 320.531 405.334L309.864 405.334C295.977 405.334 282.902 400.692 271.988 392.494 279.287 412.551 293.372 426.667 309.333 426.667 315.229 426.667 320 431.438 320 437.334 320 443.23 315.229 448 309.333 448L202.667 448C199.944 448 197.526 446.904 195.642 445.228L241.081 490.667 405.438 490.667C417.146 490.667 426.667 481.146 426.667 469.438L426.667 358.25 365.406 296.99Z" fill="url(#SVGID_1_)"/><path d="M405.333 0 106.667 0C83.135 0 64 19.135 64 42.667L64 469.334C64 492.865 83.135 512 106.667 512L405.438 512C428.906 512 448 492.906 448 469.438L448 42.667C448 19.135 428.865 0 405.333 0Z" fill="url(#SVGID_2_)"/><g></g><g></g><g></g><g></g><g></g><g></g><g></g><g></g><g></g><g></g><g></g><g></g><g></g><g></g><g></g></svg>