<svg height="432pt" viewBox="-68 0 432 432" width="432pt" xmlns="http://www.w3.org/2000/svg"><path d="m34.65625 432h225.6875c19.140625 0 34.65625-15.515625 34.65625-34.65625v-362.6875c0-19.140625-15.515625-34.65625-34.65625-34.65625h-225.6875c-19.140625 0-34.65625 15.515625-34.65625 34.65625v362.6875c0 19.140625 15.515625 34.65625 34.65625 34.65625zm189.34375-404c26.496094.03125 47.96875 21.503906 48 48 0 4.417969-3.582031 8-8 8s-8-3.582031-8-8c-.019531-17.664062-14.335938-31.980469-32-32-4.417969 0-8-3.582031-8-8s3.582031-8 8-8zm-81.21875 90.410156c.167969-.074218.332031-.140625.5-.199218 3.027344-1.226563 6.414062-1.226563 9.441406 0 .148438.054687.296875.113281.441406.179687 65.09375 28.347656 87.140626 81.59375 80.117188 121.777344-5 28.96875-24.179688 47.699219-48.84375 47.699219-5.089844-.015626-10.148438-.785157-15.011719-2.285157l5.398438 19.011719c.675781 2.433594.191406 5.042969-1.3125 7.074219-1.5 2.03125-3.855469 3.257812-6.382813 3.324219h-38.257812c-2.527344-.054688-4.886719-1.28125-6.382813-3.320313-1.511719-2.058594-1.996093-4.699219-1.308593-7.15625l5.519531-19.40625c-4.839844 1.488281-9.871094 2.265625-14.933594 2.300781-24.511719 0-43.757813-18.523437-49.027344-47.195312 0-.019532-.007812-.035156-.007812-.054688-7.03125-39.746094 14.992187-92.816406 80.050781-121.75zm-110.78125 229.589844c4.417969 0 8 3.582031 8 8 .019531 17.664062 14.335938 31.980469 32 32 4.417969 0 8 3.582031 8 8s-3.582031 8-8 8c-26.496094-.03125-47.96875-21.503906-48-48 0-4.417969 3.582031-8 8-8zm0 0"/><path d="m111.765625 271.417969c9.628906 0 20.433594-4.554688 31.253906-13.171875 2.949219-2.347656 7.136719-2.320313 10.050781.066406 10.816407 8.859375 21.664063 13.539062 31.367188 13.539062 16.734375 0 29.410156-13.195312 33.082031-34.433593 5.898438-33.78125-13.339843-78.824219-69.5-103.816407-40.6875 18.550782-77.691406 57.578126-69.539062 103.757813 3.871093 21.007813 16.621093 34.058594 33.285156 34.058594zm0 0"/><path d="m147.929688 274.613281c-.65625.457031-1.3125.964844-1.964844 1.398438l-6.5 22.988281h17.070312l-6.445312-22.769531c-.722656-.488281-1.441406-1.097657-2.160156-1.617188zm0 0"/></svg>